<?xml version="1.0" encoding="UTF-8" standalone="no"?>
<!DOCTYPE svg PUBLIC "-//W3C//DTD SVG 1.1//EN" "http://www.w3.org/Graphics/SVG/1.1/DTD/svg11.dtd">
<svg width="150.00" height="150.00" viewBox="0.00 0.00 150.00 150.00" xmlns="http://www.w3.org/2000/svg" xmlns:xlink="http://www.w3.org/1999/xlink">
<g stroke-linecap="round" id="Layer_2">
<path d="M74.95,40.49 C72.29,40.59 64.22,42.24 61.06,43.47 C57.76,44.80 52.67,48.57 50.14,51.35 C47.50,54.29 44.17,59.06 42.68,62.22 C41.17,65.52 39.95,71.45 39.96,75.27 C40.02,79.10 41.43,85.31 43.12,89.25 C44.80,93.09 47.87,98.02 50.12,100.16 C52.26,102.15 59.17,106.62 61.60,107.75 C64.13,108.89 69.98,110.15 73.36,110.26 C77.37,110.35 82.83,109.63 86.02,108.59 C88.81,107.64 94.07,104.71 96.18,103.20 C98.57,101.45 101.84,97.97 103.55,95.14 C105.15,92.45 108.26,86.32 109.06,83.59 C109.83,80.88 109.84,74.80 109.29,70.65 C108.69,66.41 106.67,60.45 104.75,57.30 C102.79,54.16 98.37,49.54 94.97,47.12 C91.53,44.72 85.68,42.00 82.19,41.17 C80.42,40.78 76.82,40.44 74.95,40.49 Z" fill="none" stroke="rgb(0, 0, 0)" stroke-width="34.99" stroke-opacity="1.00" stroke-linejoin="round"/>
<path d="M62.45,44.97 C62.45,44.97 35.40,24.09 35.40,24.09 C35.40,24.09 25.50,33.99 25.50,33.99 C25.50,33.99 46.38,61.04 46.38,61.04 C46.38,61.04 11.00,67.00 11.00,67.00 C11.00,67.00 11.00,81.00 11.00,81.00 C11.00,81.00 44.89,85.36 44.89,85.36 C44.89,85.36 24.09,114.60 24.09,114.60 C24.09,114.60 33.99,124.50 33.99,124.50 C33.99,124.50 62.64,105.11 62.64,105.11 C62.64,105.11 67.00,139.00 67.00,139.00 C67.00,139.00 81.00,139.00 81.00,139.00 C81.00,139.00 88.96,103.62 88.96,103.62 C88.96,103.62 116.01,124.50 116.01,124.50 C116.01,124.50 125.91,114.60 125.91,114.60 C125.91,114.60 105.11,85.36 105.11,85.36 C105.11,85.36 139.00,81.00 139.00,81.00 C139.00,81.00 139.00,67.00 139.00,67.00 C139.00,67.00 103.62,61.04 103.62,61.04 C103.62,61.04 124.50,33.99 124.50,33.99 C124.50,33.99 114.60,24.09 114.60,24.09 C114.60,24.09 87.55,44.97 87.55,44.97 C87.55,44.97 81.00,11.00 81.00,11.00 C81.00,11.00 67.00,11.00 67.00,11.00 C67.00,11.00 62.64,44.89 62.64,44.89" fill="none" stroke="rgb(0, 0, 0)" stroke-width="20.00" stroke-opacity="1.00" stroke-linejoin="round"/>
</g>
</svg>
