<?xml version="1.0" encoding="UTF-8" standalone="no"?>
<!DOCTYPE svg PUBLIC "-//W3C//DTD SVG 1.1//EN" "http://www.w3.org/Graphics/SVG/1.1/DTD/svg11.dtd">
<svg width="100.00" height="100.00" viewBox="0.00 0.00 100.00 100.00" xmlns="http://www.w3.org/2000/svg" xmlns:xlink="http://www.w3.org/1999/xlink">
<g stroke-linecap="round" id="Layer_1">
<path d="M23.09,49.03 C23.09,49.03 43.70,68.67 43.70,68.67 C43.70,68.67 89.01,6.00 89.01,6.00" fill="none" stroke="rgb(118, 185, 133)" stroke-width="10.00" stroke-opacity="1.00" stroke-linejoin="round"/>
<path d="M67.57,8.16 C64.90,7.46 57.30,5.45 54.29,5.04 C50.34,4.53 43.38,5.10 39.28,6.18 C35.32,7.26 29.84,9.35 27.27,10.93 C24.76,12.51 20.20,16.21 17.74,18.65 C15.12,21.28 11.72,26.47 10.02,30.09 C8.84,32.65 6.06,40.02 5.51,43.36 C5.11,45.92 5.09,52.86 5.44,55.48 C5.84,58.24 8.23,66.11 9.27,68.57 C10.74,71.96 15.16,78.31 17.95,81.29 C20.63,84.11 26.13,88.11 29.51,89.93 C32.53,91.53 38.07,93.37 41.30,94.04 C44.18,94.63 50.56,95.05 53.27,94.88 C56.45,94.67 63.73,92.80 67.42,91.44 C70.93,90.11 77.02,86.50 79.47,84.40 C82.03,82.15 86.87,76.19 88.56,73.60 C90.65,70.33 93.27,64.02 94.12,60.21 C94.83,56.98 95.56,49.50 95.30,46.16 C94.75,39.72 91.91,32.74 90.05,28.65" fill="none" stroke="rgb(118, 185, 133)" stroke-width="10.00" stroke-opacity="1.00" stroke-linejoin="round"/>
</g>
</svg>
